<svg xmlns="http://www.w3.org/2000/svg" xmlns:xlink="http://www.w3.org/1999/xlink" width="149" height="23.6"><path fill="black" d="M1.08 12.18L1.08 12.18L2.34 12.18Q2.38 10.92 3.14 10.35Q3.90 9.78 5.10 9.78L5.10 9.78Q5.66 9.78 6.15 9.87Q6.64 9.96 7.01 10.20Q7.38 10.44 7.59 10.85Q7.80 11.26 7.80 11.90L7.80 11.90Q7.80 12.32 7.69 12.58Q7.58 12.84 7.38 12.99Q7.18 13.14 6.88 13.20Q6.58 13.26 6.18 13.30L6.18 13.30Q5.16 13.42 4.17 13.55Q3.18 13.68 2.39 14Q1.60 14.32 1.12 14.93Q0.64 15.54 0.64 16.62L0.64 16.62Q0.64 17.40 0.91 17.97Q1.18 18.54 1.65 18.91Q2.12 19.28 2.75 19.45Q3.38 19.62 4.10 19.62L4.10 19.62Q4.86 19.62 5.41 19.48Q5.96 19.34 6.39 19.08Q6.82 18.82 7.17 18.43Q7.52 18.04 7.86 17.54L7.86 17.54L7.90 17.54Q7.90 17.94 7.95 18.27Q8 18.60 8.16 18.84Q8.32 19.08 8.61 19.21Q8.90 19.34 9.38 19.34L9.38 19.34Q9.64 19.34 9.81 19.32Q9.98 19.30 10.20 19.26L10.20 19.26L10.20 18.20Q10.02 18.28 9.80 18.28L9.80 18.28Q9.06 18.28 9.06 17.52L9.06 17.52L9.06 12.04Q9.06 11 8.72 10.35Q8.38 9.70 7.84 9.34Q7.30 8.98 6.62 8.85Q5.94 8.72 5.26 8.72L5.26 8.72Q4.36 8.72 3.62 8.92Q2.88 9.12 2.33 9.54Q1.78 9.96 1.46 10.62Q1.14 11.28 1.08 12.18ZM7.76 13.70L7.80 13.70L7.80 15.34Q7.80 16.10 7.51 16.70Q7.22 17.30 6.73 17.72Q6.24 18.14 5.58 18.36Q4.92 18.58 4.20 18.58L4.20 18.58Q3.76 18.58 3.34 18.44Q2.92 18.30 2.60 18.03Q2.28 17.76 2.09 17.39Q1.90 17.02 1.90 16.54L1.90 16.54Q1.90 15.78 2.35 15.37Q2.80 14.96 3.50 14.74Q4.20 14.52 5.05 14.41Q5.90 14.30 6.70 14.16L6.70 14.16Q6.96 14.12 7.30 14.02Q7.64 13.92 7.76 13.70L7.76 13.70ZM12.86 5.06L11.60 5.06L11.60 19.34L12.86 19.34L12.86 5.06ZM16.44 9.02L15.28 9.02L15.28 19.34L16.54 19.34L16.54 13.58Q16.54 12.76 16.72 12.07Q16.90 11.38 17.27 10.87Q17.64 10.36 18.23 10.07Q18.82 9.78 19.62 9.78L19.62 9.78Q20.22 9.78 20.64 9.98Q21.06 10.18 21.31 10.53Q21.56 10.88 21.67 11.35Q21.78 11.82 21.78 12.34L21.78 12.34L21.78 19.34L23.04 19.34L23.04 13.50Q23.04 12.78 23.17 12.11Q23.30 11.44 23.62 10.92Q23.94 10.40 24.48 10.09Q25.02 9.78 25.84 9.78L25.84 9.78Q27.20 9.78 27.74 10.45Q28.28 11.12 28.28 12.40L28.28 12.40L28.28 19.34L29.54 19.34L29.54 12.34Q29.54 8.72 26.12 8.72L26.12 8.72Q25.10 8.72 24.20 9.22Q23.30 9.72 22.84 10.74L22.84 10.74Q22.56 9.72 21.73 9.22Q20.90 8.72 19.88 8.72L19.88 8.72Q18.62 8.72 17.81 9.26Q17 9.80 16.50 10.76L16.50 10.76L16.44 10.76L16.44 9.02ZM36.30 11.32L36.30 11.32Q35.74 11.34 35.20 11.20Q34.66 11.06 34.24 10.74Q33.82 10.42 33.56 9.92Q33.30 9.42 33.30 8.72L33.30 8.72Q33.30 8.12 33.55 7.66Q33.80 7.20 34.22 6.90Q34.64 6.60 35.18 6.44Q35.72 6.28 36.30 6.28L36.30 6.28Q36.94 6.28 37.48 6.44Q38.02 6.60 38.42 6.90Q38.82 7.20 39.05 7.66Q39.28 8.12 39.28 8.72L39.28 8.72Q39.28 9.40 39.03 9.90Q38.78 10.40 38.37 10.72Q37.96 11.04 37.42 11.19Q36.88 11.34 36.30 11.32ZM40.54 8.72L40.54 8.72Q40.54 7.82 40.17 7.16Q39.80 6.50 39.19 6.07Q38.58 5.64 37.82 5.43Q37.06 5.22 36.28 5.22L36.28 5.22Q35.50 5.22 34.74 5.43Q33.98 5.64 33.38 6.07Q32.78 6.50 32.41 7.16Q32.04 7.82 32.04 8.72L32.04 8.72Q32.04 9.88 32.63 10.67Q33.22 11.46 34.32 11.80L34.32 11.80L34.32 11.84Q33 12.08 32.26 13.06Q31.52 14.04 31.48 15.42L31.48 15.42Q31.48 16.48 31.86 17.27Q32.24 18.06 32.90 18.58Q33.56 19.10 34.44 19.36Q35.32 19.62 36.30 19.62L36.30 19.62Q37.30 19.62 38.17 19.36Q39.04 19.10 39.70 18.58Q40.36 18.06 40.74 17.27Q41.12 16.48 41.12 15.42L41.12 15.42Q41.12 13.98 40.38 13.05Q39.64 12.12 38.26 11.84L38.26 11.84L38.26 11.80Q39.34 11.48 39.94 10.67Q40.54 9.86 40.54 8.72ZM36.30 18.58L36.30 18.58Q35.56 18.58 34.91 18.38Q34.26 18.18 33.78 17.79Q33.30 17.40 33.02 16.80Q32.74 16.20 32.74 15.42L32.74 15.42Q32.74 14.66 33.03 14.08Q33.32 13.50 33.80 13.11Q34.28 12.72 34.93 12.54Q35.58 12.36 36.30 12.38L36.30 12.38Q37 12.36 37.65 12.55Q38.30 12.74 38.79 13.13Q39.28 13.52 39.57 14.09Q39.86 14.66 39.86 15.42L39.86 15.42Q39.86 16.22 39.58 16.82Q39.30 17.42 38.82 17.81Q38.34 18.20 37.69 18.39Q37.04 18.58 36.30 18.58ZM43.80 8.04L43.80 8.04L43.80 8.94L47.50 8.94L47.50 19.34L48.76 19.34L48.76 5.34L47.74 5.34Q47.60 6.30 47.27 6.83Q46.94 7.36 46.45 7.62Q45.96 7.88 45.29 7.95Q44.62 8.02 43.80 8.04ZM58.54 11.32L58.54 11.32Q57.98 11.34 57.44 11.20Q56.90 11.06 56.48 10.74Q56.06 10.42 55.80 9.92Q55.54 9.42 55.54 8.72L55.54 8.72Q55.54 8.12 55.79 7.66Q56.04 7.20 56.46 6.90Q56.88 6.60 57.42 6.44Q57.96 6.28 58.54 6.28L58.54 6.28Q59.18 6.28 59.72 6.44Q60.26 6.60 60.66 6.90Q61.06 7.20 61.29 7.66Q61.52 8.12 61.52 8.72L61.52 8.72Q61.52 9.40 61.27 9.90Q61.02 10.40 60.61 10.72Q60.20 11.04 59.66 11.19Q59.12 11.34 58.54 11.32ZM62.78 8.72L62.78 8.72Q62.78 7.82 62.41 7.16Q62.04 6.50 61.43 6.07Q60.82 5.64 60.06 5.43Q59.30 5.22 58.52 5.22L58.52 5.22Q57.74 5.22 56.98 5.43Q56.22 5.64 55.62 6.07Q55.02 6.50 54.65 7.16Q54.28 7.82 54.28 8.72L54.28 8.72Q54.28 9.88 54.87 10.67Q55.46 11.46 56.56 11.80L56.56 11.80L56.56 11.84Q55.24 12.08 54.50 13.06Q53.76 14.04 53.72 15.42L53.72 15.42Q53.72 16.48 54.10 17.27Q54.48 18.06 55.14 18.58Q55.80 19.10 56.68 19.36Q57.56 19.62 58.54 19.62L58.54 19.62Q59.54 19.62 60.41 19.36Q61.28 19.10 61.94 18.58Q62.60 18.06 62.98 17.27Q63.36 16.48 63.36 15.42L63.36 15.42Q63.36 13.98 62.62 13.05Q61.88 12.12 60.50 11.84L60.50 11.84L60.50 11.80Q61.58 11.48 62.18 10.67Q62.78 9.86 62.78 8.72ZM58.54 18.58L58.54 18.58Q57.80 18.58 57.15 18.38Q56.50 18.18 56.02 17.79Q55.54 17.40 55.26 16.80Q54.98 16.20 54.98 15.42L54.98 15.42Q54.98 14.66 55.27 14.08Q55.56 13.50 56.04 13.11Q56.52 12.72 57.17 12.54Q57.82 12.36 58.54 12.38L58.54 12.38Q59.24 12.36 59.89 12.55Q60.54 12.74 61.03 13.13Q61.52 13.52 61.81 14.09Q62.10 14.66 62.10 15.42L62.10 15.42Q62.10 16.22 61.82 16.82Q61.54 17.42 61.06 17.81Q60.58 18.20 59.93 18.39Q59.28 18.58 58.54 18.58ZM74.46 14.22L74.46 14.22L76.38 8.46L75.32 8.46L74.82 9.76Q74.48 8.86 73.92 8.47Q73.36 8.08 72.70 8.08L72.70 8.08Q71.64 8.08 70.76 8.59Q69.88 9.10 69.26 9.93Q68.64 10.76 68.30 11.79Q67.96 12.82 67.96 13.86L67.96 13.86Q67.96 14.46 68.14 14.98Q68.32 15.50 68.66 15.90Q69.00 16.30 69.49 16.53Q69.98 16.76 70.60 16.76L70.60 16.76Q71.36 16.76 72.02 16.34Q72.68 15.92 73.14 15.44L73.14 15.44L73.18 15.44Q73.24 16.10 73.62 16.44Q74.00 16.78 74.52 16.78L74.52 16.78Q75.36 16.78 76.19 16.33Q77.02 15.88 77.68 15.09Q78.34 14.30 78.75 13.24Q79.16 12.18 79.16 10.98L79.16 10.98Q79.16 9.60 78.64 8.46Q78.12 7.32 77.21 6.49Q76.30 5.66 75.06 5.21Q73.82 4.76 72.38 4.76L72.38 4.76Q70.86 4.76 69.52 5.33Q68.18 5.90 67.18 6.89Q66.18 7.88 65.61 9.23Q65.04 10.58 65.04 12.14L65.04 12.14Q65.04 13.72 65.59 15.09Q66.14 16.46 67.13 17.47Q68.12 18.48 69.48 19.05Q70.84 19.62 72.46 19.62L72.46 19.62Q73.40 19.62 74.31 19.38Q75.22 19.14 76.03 18.68Q76.84 18.22 77.51 17.56Q78.18 16.90 78.64 16.08L78.64 16.08L77.62 16.08Q77.18 16.70 76.60 17.19Q76.02 17.68 75.34 18.02Q74.66 18.36 73.93 18.55Q73.20 18.74 72.46 18.74L72.46 18.74Q71.10 18.74 69.93 18.24Q68.76 17.74 67.91 16.87Q67.06 16 66.58 14.82Q66.10 13.64 66.10 12.28L66.10 12.28Q66.10 10.90 66.56 9.69Q67.02 8.48 67.86 7.59Q68.70 6.70 69.86 6.18Q71.02 5.66 72.42 5.66L72.42 5.66Q73.58 5.66 74.61 6.02Q75.64 6.38 76.42 7.05Q77.20 7.72 77.65 8.70Q78.10 9.68 78.10 10.92L78.10 10.92Q78.10 11.76 77.82 12.64Q77.54 13.52 77.08 14.24Q76.62 14.96 76.00 15.42Q75.38 15.88 74.72 15.88L74.72 15.88Q74.48 15.88 74.37 15.74Q74.26 15.60 74.25 15.37Q74.24 15.14 74.30 14.84Q74.36 14.54 74.46 14.22ZM72.62 9.14L72.62 9.14Q72.92 9.14 73.20 9.30Q73.48 9.46 73.70 9.72Q73.92 9.98 74.06 10.31Q74.20 10.64 74.20 11L74.20 11Q74.20 11.66 73.94 12.48Q73.68 13.30 73.23 14.01Q72.78 14.72 72.18 15.21Q71.58 15.70 70.88 15.70L70.88 15.70Q70.16 15.70 69.69 15.18Q69.22 14.66 69.22 13.76L69.22 13.76Q69.22 13.06 69.46 12.25Q69.70 11.44 70.15 10.75Q70.60 10.06 71.23 9.60Q71.86 9.14 72.62 9.14ZM82.54 9.02L81.28 9.02L81.28 19.34L82.54 19.34L82.54 13.32Q82.56 12.56 82.79 11.91Q83.02 11.26 83.43 10.79Q83.84 10.32 84.43 10.05Q85.02 9.78 85.78 9.78L85.78 9.78Q86.54 9.78 87.05 10.02Q87.56 10.26 87.86 10.68Q88.16 11.10 88.28 11.67Q88.40 12.24 88.40 12.90L88.40 12.90L88.40 19.34L89.66 19.34L89.66 12.70Q89.66 11.78 89.48 11.04Q89.30 10.30 88.86 9.79Q88.42 9.28 87.69 9Q86.96 8.72 85.88 8.72L85.88 8.72Q84.78 8.72 83.86 9.29Q82.94 9.86 82.58 10.80L82.58 10.80L82.54 10.80L82.54 9.02ZM92.22 9.02L90.88 9.02L95 19.30L94.56 20.46Q94.40 20.82 94.26 21.12Q94.12 21.42 93.92 21.63Q93.72 21.84 93.45 21.96Q93.18 22.08 92.76 22.08L92.76 22.08Q92.54 22.08 92.33 22.05Q92.12 22.02 91.90 21.98L91.90 21.98L91.90 23.04Q92.06 23.10 92.27 23.11Q92.48 23.12 92.86 23.14L92.86 23.14Q93.46 23.14 93.85 23.03Q94.24 22.92 94.53 22.67Q94.82 22.42 95.06 21.99Q95.30 21.56 95.58 20.90L95.58 20.90L100.06 9.02L98.80 9.02L95.62 17.82L92.22 9.02ZM108.50 19.34L109.66 19.34L109.66 9.02L108.40 9.02L108.40 14.44Q108.40 15.22 108.22 15.97Q108.04 16.72 107.66 17.30Q107.28 17.88 106.70 18.23Q106.12 18.58 105.30 18.58L105.30 18.58Q103.80 18.58 103.19 17.86Q102.58 17.14 102.54 15.74L102.54 15.74L102.54 9.02L101.28 9.02L101.28 15.72Q101.28 16.64 101.48 17.36Q101.68 18.08 102.11 18.58Q102.54 19.08 103.23 19.35Q103.92 19.62 104.90 19.62L104.90 19.62Q106.06 19.62 107.01 19.07Q107.96 18.52 108.46 17.48L108.46 17.48L108.50 17.48L108.50 19.34ZM112.78 17.22L112.78 19.34L114.46 19.34L114.46 17.22L112.78 17.22ZM125.02 13.46L125.02 13.46L118.34 13.46Q118.42 12.76 118.67 12.09Q118.92 11.42 119.34 10.91Q119.76 10.40 120.36 10.09Q120.96 9.78 121.74 9.78L121.74 9.78Q122.50 9.78 123.10 10.09Q123.70 10.40 124.12 10.91Q124.54 11.42 124.77 12.08Q125 12.74 125.02 13.46ZM118.34 14.52L118.34 14.52L126.28 14.52Q126.32 13.44 126.08 12.39Q125.84 11.34 125.29 10.53Q124.74 9.72 123.86 9.22Q122.98 8.72 121.74 8.72L121.74 8.72Q120.52 8.72 119.63 9.19Q118.74 9.66 118.18 10.43Q117.62 11.20 117.35 12.18Q117.08 13.16 117.08 14.18L117.08 14.18Q117.08 15.28 117.35 16.27Q117.62 17.26 118.18 18.01Q118.74 18.76 119.63 19.19Q120.52 19.62 121.74 19.62L121.74 19.62Q123.70 19.62 124.77 18.66Q125.84 17.70 126.24 15.94L126.24 15.94L124.98 15.94Q124.68 17.14 123.90 17.86Q123.12 18.58 121.74 18.58L121.74 18.58Q120.84 18.58 120.20 18.20Q119.56 17.82 119.14 17.24Q118.72 16.66 118.53 15.93Q118.34 15.20 118.34 14.52ZM135.90 19.34L137.06 19.34L137.06 5.06L135.80 5.06L135.80 10.98L135.76 10.98Q135.56 10.42 135.19 10Q134.82 9.58 134.34 9.29Q133.86 9 133.31 8.86Q132.76 8.72 132.18 8.72L132.18 8.72Q131 8.72 130.13 9.16Q129.26 9.60 128.68 10.35Q128.10 11.10 127.82 12.09Q127.54 13.08 127.54 14.18L127.54 14.18Q127.54 15.28 127.82 16.27Q128.10 17.26 128.68 18.01Q129.26 18.76 130.13 19.19Q131 19.62 132.18 19.62L132.18 19.62Q132.74 19.62 133.31 19.46Q133.88 19.30 134.38 19.01Q134.88 18.72 135.27 18.30Q135.66 17.88 135.86 17.38L135.86 17.38L135.90 17.38L135.90 19.34ZM128.80 14.18L128.80 14.18Q128.80 13.38 128.99 12.59Q129.18 11.80 129.59 11.18Q130 10.56 130.64 10.17Q131.28 9.78 132.18 9.78L132.18 9.78Q133.18 9.78 133.87 10.17Q134.56 10.56 134.99 11.18Q135.42 11.80 135.61 12.59Q135.80 13.38 135.80 14.18L135.80 14.18Q135.80 14.98 135.61 15.77Q135.42 16.56 134.99 17.18Q134.56 17.80 133.87 18.19Q133.18 18.58 132.18 18.58L132.18 18.58Q131.28 18.58 130.64 18.19Q130 17.80 129.59 17.18Q129.18 16.56 128.99 15.77Q128.80 14.98 128.80 14.18ZM146.66 19.34L147.82 19.34L147.82 9.02L146.56 9.02L146.56 14.44Q146.56 15.22 146.38 15.97Q146.20 16.72 145.82 17.30Q145.44 17.88 144.86 18.23Q144.28 18.58 143.46 18.58L143.46 18.58Q141.96 18.58 141.35 17.86Q140.74 17.14 140.70 15.74L140.70 15.74L140.70 9.02L139.44 9.02L139.44 15.72Q139.44 16.64 139.64 17.36Q139.84 18.08 140.27 18.58Q140.70 19.08 141.39 19.35Q142.08 19.62 143.06 19.62L143.06 19.62Q144.22 19.62 145.17 19.07Q146.12 18.52 146.62 17.48L146.62 17.48L146.66 17.48L146.66 19.34Z"/></svg>