<svg xmlns="http://www.w3.org/2000/svg" xmlns:xlink="http://www.w3.org/1999/xlink" width="124.17999999999999" height="23.6"><path fill="black" d="M1.08 12.18L1.08 12.18L2.34 12.18Q2.38 10.92 3.14 10.35Q3.90 9.78 5.10 9.78L5.10 9.78Q5.66 9.78 6.15 9.87Q6.64 9.96 7.01 10.20Q7.38 10.44 7.59 10.85Q7.80 11.26 7.80 11.90L7.80 11.90Q7.80 12.32 7.69 12.58Q7.58 12.84 7.38 12.99Q7.18 13.14 6.88 13.20Q6.58 13.26 6.18 13.30L6.18 13.30Q5.16 13.42 4.17 13.55Q3.18 13.68 2.39 14Q1.60 14.32 1.12 14.93Q0.64 15.54 0.64 16.62L0.64 16.62Q0.64 17.40 0.91 17.97Q1.18 18.54 1.65 18.91Q2.12 19.28 2.75 19.45Q3.38 19.62 4.10 19.62L4.10 19.62Q4.86 19.62 5.41 19.48Q5.96 19.34 6.39 19.08Q6.82 18.82 7.17 18.43Q7.52 18.04 7.86 17.54L7.86 17.54L7.90 17.54Q7.90 17.94 7.95 18.27Q8 18.60 8.16 18.84Q8.32 19.08 8.61 19.21Q8.90 19.34 9.38 19.34L9.38 19.34Q9.64 19.34 9.81 19.32Q9.98 19.30 10.20 19.26L10.20 19.26L10.20 18.20Q10.02 18.28 9.80 18.28L9.80 18.28Q9.06 18.28 9.06 17.52L9.06 17.52L9.06 12.04Q9.06 11 8.72 10.35Q8.38 9.70 7.84 9.34Q7.30 8.98 6.62 8.85Q5.94 8.72 5.26 8.72L5.26 8.72Q4.36 8.72 3.62 8.92Q2.88 9.12 2.33 9.54Q1.78 9.96 1.46 10.62Q1.14 11.28 1.08 12.18ZM7.76 13.70L7.80 13.70L7.80 15.34Q7.80 16.10 7.51 16.70Q7.22 17.30 6.73 17.72Q6.24 18.14 5.58 18.36Q4.92 18.58 4.20 18.58L4.20 18.58Q3.76 18.58 3.34 18.44Q2.92 18.30 2.60 18.03Q2.28 17.76 2.09 17.39Q1.90 17.02 1.90 16.54L1.90 16.54Q1.90 15.78 2.35 15.37Q2.80 14.96 3.50 14.74Q4.20 14.52 5.05 14.41Q5.90 14.30 6.70 14.16L6.70 14.16Q6.96 14.12 7.30 14.02Q7.64 13.92 7.76 13.70L7.76 13.70ZM19.30 18.28L12.20 18.28L19.02 9.92L19.02 9.02L11.14 9.02L11.14 10.08L17.42 10.08L10.68 18.32L10.68 19.34L19.30 19.34L19.30 18.28ZM28.56 18.28L21.46 18.28L28.28 9.92L28.28 9.02L20.40 9.02L20.40 10.08L26.68 10.08L19.94 18.32L19.94 19.34L28.56 19.34L28.56 18.28ZM29.98 12.18L29.98 12.18L31.24 12.18Q31.28 10.92 32.04 10.35Q32.80 9.78 34 9.78L34 9.78Q34.56 9.78 35.05 9.87Q35.54 9.96 35.91 10.20Q36.28 10.44 36.49 10.85Q36.70 11.26 36.70 11.90L36.70 11.90Q36.70 12.32 36.59 12.58Q36.48 12.84 36.28 12.99Q36.08 13.14 35.78 13.20Q35.48 13.26 35.08 13.30L35.08 13.30Q34.06 13.42 33.07 13.55Q32.08 13.68 31.29 14Q30.50 14.32 30.02 14.93Q29.54 15.54 29.54 16.62L29.54 16.62Q29.54 17.40 29.81 17.97Q30.08 18.54 30.55 18.91Q31.02 19.28 31.65 19.45Q32.28 19.62 33 19.62L33 19.62Q33.76 19.62 34.31 19.48Q34.86 19.34 35.29 19.08Q35.72 18.82 36.07 18.43Q36.42 18.04 36.76 17.54L36.76 17.54L36.80 17.54Q36.80 17.94 36.85 18.27Q36.90 18.60 37.06 18.84Q37.22 19.08 37.51 19.21Q37.80 19.34 38.28 19.34L38.28 19.34Q38.54 19.34 38.71 19.32Q38.88 19.30 39.10 19.26L39.10 19.26L39.10 18.20Q38.92 18.28 38.70 18.28L38.70 18.28Q37.96 18.28 37.96 17.52L37.96 17.52L37.96 12.04Q37.96 11 37.62 10.35Q37.28 9.70 36.74 9.34Q36.20 8.98 35.52 8.85Q34.84 8.72 34.16 8.72L34.16 8.72Q33.26 8.72 32.52 8.92Q31.78 9.12 31.23 9.54Q30.68 9.96 30.36 10.62Q30.04 11.28 29.98 12.18ZM36.66 13.70L36.70 13.70L36.70 15.34Q36.70 16.10 36.41 16.70Q36.12 17.30 35.63 17.72Q35.14 18.14 34.48 18.36Q33.82 18.58 33.10 18.58L33.10 18.58Q32.66 18.58 32.24 18.44Q31.82 18.30 31.50 18.03Q31.18 17.76 30.99 17.39Q30.80 17.02 30.80 16.54L30.80 16.54Q30.80 15.78 31.25 15.37Q31.70 14.96 32.40 14.74Q33.10 14.52 33.95 14.41Q34.80 14.30 35.60 14.16L35.60 14.16Q35.86 14.12 36.20 14.02Q36.54 13.92 36.66 13.70L36.66 13.70ZM49.64 14.22L49.64 14.22L51.56 8.46L50.50 8.46L50 9.76Q49.66 8.86 49.10 8.47Q48.54 8.08 47.88 8.08L47.88 8.08Q46.82 8.08 45.94 8.59Q45.06 9.10 44.44 9.93Q43.82 10.76 43.48 11.79Q43.14 12.82 43.14 13.86L43.14 13.86Q43.14 14.46 43.32 14.98Q43.50 15.50 43.84 15.90Q44.18 16.30 44.67 16.53Q45.16 16.76 45.78 16.76L45.78 16.76Q46.54 16.76 47.20 16.34Q47.86 15.92 48.32 15.44L48.32 15.44L48.36 15.44Q48.42 16.10 48.80 16.44Q49.18 16.78 49.70 16.78L49.70 16.78Q50.54 16.78 51.37 16.33Q52.20 15.88 52.86 15.09Q53.52 14.30 53.93 13.24Q54.34 12.18 54.34 10.98L54.34 10.98Q54.34 9.60 53.82 8.46Q53.30 7.32 52.39 6.49Q51.48 5.66 50.24 5.21Q49 4.76 47.56 4.76L47.56 4.76Q46.04 4.76 44.70 5.33Q43.36 5.90 42.36 6.89Q41.36 7.88 40.79 9.23Q40.22 10.58 40.22 12.14L40.22 12.14Q40.22 13.72 40.77 15.09Q41.32 16.46 42.31 17.47Q43.30 18.48 44.66 19.05Q46.02 19.62 47.64 19.62L47.64 19.62Q48.58 19.62 49.49 19.38Q50.40 19.14 51.21 18.68Q52.02 18.22 52.69 17.56Q53.36 16.90 53.82 16.08L53.82 16.08L52.80 16.08Q52.36 16.70 51.78 17.19Q51.20 17.68 50.52 18.02Q49.84 18.36 49.11 18.55Q48.38 18.74 47.64 18.74L47.64 18.74Q46.28 18.74 45.11 18.24Q43.94 17.74 43.09 16.87Q42.24 16 41.76 14.82Q41.28 13.64 41.28 12.28L41.28 12.28Q41.28 10.90 41.74 9.69Q42.20 8.48 43.04 7.59Q43.88 6.70 45.04 6.18Q46.20 5.66 47.60 5.66L47.60 5.66Q48.76 5.66 49.79 6.02Q50.82 6.38 51.60 7.05Q52.38 7.72 52.83 8.70Q53.28 9.68 53.28 10.92L53.28 10.92Q53.28 11.76 53 12.64Q52.72 13.52 52.26 14.24Q51.80 14.96 51.18 15.42Q50.56 15.88 49.90 15.88L49.90 15.88Q49.66 15.88 49.55 15.74Q49.44 15.60 49.43 15.37Q49.42 15.14 49.48 14.84Q49.54 14.54 49.64 14.22ZM47.80 9.14L47.80 9.14Q48.10 9.14 48.38 9.30Q48.66 9.46 48.88 9.72Q49.10 9.98 49.24 10.31Q49.38 10.64 49.38 11L49.38 11Q49.38 11.66 49.12 12.48Q48.86 13.30 48.41 14.01Q47.96 14.72 47.36 15.21Q46.76 15.70 46.06 15.70L46.06 15.70Q45.34 15.70 44.87 15.18Q44.40 14.66 44.40 13.76L44.40 13.76Q44.40 13.06 44.64 12.25Q44.88 11.44 45.33 10.75Q45.78 10.06 46.41 9.60Q47.04 9.14 47.80 9.14ZM57.72 9.02L56.46 9.02L56.46 19.34L57.72 19.34L57.72 13.32Q57.74 12.56 57.97 11.91Q58.20 11.26 58.61 10.79Q59.02 10.32 59.61 10.05Q60.20 9.78 60.96 9.78L60.96 9.78Q61.72 9.78 62.23 10.02Q62.74 10.26 63.04 10.68Q63.34 11.10 63.46 11.67Q63.58 12.24 63.58 12.90L63.58 12.90L63.58 19.34L64.84 19.34L64.84 12.70Q64.84 11.78 64.66 11.04Q64.48 10.30 64.04 9.79Q63.60 9.28 62.87 9Q62.14 8.72 61.06 8.72L61.06 8.72Q59.96 8.72 59.04 9.29Q58.12 9.86 57.76 10.80L57.76 10.80L57.72 10.80L57.72 9.02ZM67.40 9.02L66.06 9.02L70.18 19.30L69.74 20.46Q69.58 20.82 69.44 21.12Q69.30 21.42 69.10 21.63Q68.90 21.84 68.63 21.96Q68.36 22.08 67.94 22.08L67.94 22.08Q67.72 22.08 67.51 22.05Q67.30 22.02 67.08 21.98L67.08 21.98L67.08 23.04Q67.24 23.10 67.45 23.11Q67.66 23.12 68.04 23.14L68.04 23.14Q68.64 23.14 69.03 23.03Q69.42 22.92 69.71 22.67Q70 22.42 70.24 21.99Q70.48 21.56 70.76 20.90L70.76 20.90L75.24 9.02L73.98 9.02L70.80 17.82L67.40 9.02ZM83.68 19.34L84.84 19.34L84.84 9.02L83.58 9.02L83.58 14.44Q83.58 15.22 83.40 15.97Q83.22 16.72 82.84 17.30Q82.46 17.88 81.88 18.23Q81.30 18.58 80.48 18.58L80.48 18.58Q78.98 18.58 78.37 17.86Q77.76 17.14 77.72 15.74L77.72 15.74L77.72 9.02L76.46 9.02L76.46 15.72Q76.46 16.64 76.66 17.36Q76.86 18.08 77.29 18.58Q77.72 19.08 78.41 19.35Q79.10 19.62 80.08 19.62L80.08 19.62Q81.24 19.62 82.19 19.07Q83.14 18.52 83.64 17.48L83.64 17.48L83.68 17.48L83.68 19.34ZM87.96 17.22L87.96 19.34L89.64 19.34L89.64 17.22L87.96 17.22ZM100.20 13.46L100.20 13.46L93.52 13.46Q93.60 12.76 93.85 12.09Q94.10 11.42 94.52 10.91Q94.94 10.40 95.54 10.09Q96.14 9.78 96.92 9.78L96.92 9.78Q97.68 9.78 98.28 10.09Q98.88 10.40 99.30 10.91Q99.72 11.42 99.95 12.08Q100.18 12.74 100.20 13.46ZM93.52 14.52L93.52 14.52L101.46 14.52Q101.50 13.44 101.26 12.39Q101.02 11.34 100.47 10.53Q99.92 9.72 99.04 9.22Q98.16 8.72 96.92 8.72L96.92 8.72Q95.70 8.72 94.81 9.19Q93.92 9.66 93.36 10.43Q92.80 11.20 92.53 12.18Q92.26 13.16 92.26 14.18L92.26 14.18Q92.26 15.28 92.53 16.27Q92.80 17.26 93.36 18.01Q93.92 18.76 94.81 19.19Q95.70 19.62 96.92 19.62L96.92 19.62Q98.88 19.62 99.95 18.66Q101.02 17.70 101.42 15.94L101.42 15.94L100.16 15.94Q99.86 17.14 99.08 17.86Q98.30 18.58 96.92 18.58L96.92 18.58Q96.02 18.58 95.38 18.20Q94.74 17.82 94.32 17.24Q93.90 16.66 93.71 15.93Q93.52 15.20 93.52 14.52ZM111.08 19.34L112.24 19.34L112.24 5.06L110.98 5.06L110.98 10.98L110.94 10.98Q110.74 10.42 110.37 10Q110 9.58 109.52 9.29Q109.04 9 108.49 8.86Q107.94 8.72 107.36 8.72L107.36 8.72Q106.18 8.72 105.31 9.16Q104.44 9.60 103.86 10.35Q103.28 11.10 103 12.09Q102.72 13.08 102.72 14.18L102.72 14.18Q102.72 15.28 103 16.27Q103.28 17.26 103.86 18.01Q104.44 18.76 105.31 19.19Q106.18 19.62 107.36 19.62L107.36 19.62Q107.92 19.62 108.49 19.46Q109.06 19.30 109.56 19.01Q110.06 18.72 110.45 18.30Q110.84 17.88 111.04 17.38L111.04 17.38L111.08 17.38L111.08 19.34ZM103.98 14.18L103.98 14.18Q103.98 13.38 104.17 12.59Q104.36 11.80 104.77 11.18Q105.18 10.56 105.82 10.17Q106.46 9.78 107.36 9.78L107.36 9.78Q108.36 9.78 109.05 10.17Q109.74 10.56 110.17 11.18Q110.60 11.80 110.79 12.59Q110.98 13.38 110.98 14.18L110.98 14.18Q110.98 14.98 110.79 15.77Q110.60 16.56 110.17 17.18Q109.74 17.80 109.05 18.19Q108.36 18.58 107.36 18.58L107.36 18.58Q106.46 18.58 105.82 18.19Q105.18 17.80 104.77 17.18Q104.36 16.56 104.17 15.77Q103.98 14.98 103.98 14.18ZM121.84 19.34L123 19.34L123 9.02L121.74 9.02L121.74 14.44Q121.74 15.22 121.56 15.97Q121.38 16.72 121 17.30Q120.62 17.88 120.04 18.23Q119.46 18.58 118.64 18.58L118.64 18.58Q117.14 18.58 116.53 17.86Q115.92 17.14 115.88 15.74L115.88 15.74L115.88 9.02L114.62 9.02L114.62 15.72Q114.62 16.64 114.82 17.36Q115.02 18.08 115.45 18.58Q115.88 19.08 116.57 19.35Q117.26 19.62 118.24 19.62L118.24 19.62Q119.40 19.62 120.35 19.07Q121.30 18.52 121.80 17.48L121.80 17.48L121.84 17.48L121.84 19.34Z"/></svg>