<svg xmlns="http://www.w3.org/2000/svg" xmlns:xlink="http://www.w3.org/1999/xlink" width="202.32" height="23.6"><path fill="black" d="M2.36 9.02L1.20 9.02L1.20 19.34L2.46 19.34L2.46 13.58Q2.46 12.76 2.64 12.07Q2.82 11.38 3.19 10.87Q3.56 10.36 4.15 10.07Q4.74 9.78 5.54 9.78L5.54 9.78Q6.14 9.78 6.56 9.98Q6.98 10.18 7.23 10.53Q7.48 10.88 7.59 11.35Q7.70 11.82 7.70 12.34L7.70 12.34L7.70 19.34L8.96 19.34L8.96 13.50Q8.96 12.78 9.09 12.11Q9.22 11.44 9.54 10.92Q9.86 10.40 10.40 10.09Q10.94 9.78 11.76 9.78L11.76 9.78Q13.12 9.78 13.66 10.45Q14.20 11.12 14.20 12.40L14.20 12.40L14.20 19.34L15.46 19.34L15.46 12.34Q15.46 8.72 12.04 8.72L12.04 8.72Q11.02 8.72 10.12 9.22Q9.22 9.72 8.76 10.74L8.76 10.74Q8.48 9.72 7.65 9.22Q6.82 8.72 5.80 8.72L5.80 8.72Q4.54 8.72 3.73 9.26Q2.92 9.80 2.42 10.76L2.42 10.76L2.36 10.76L2.36 9.02ZM19.14 5.06L17.88 5.06L17.88 7.08L19.14 7.08L19.14 5.06ZM19.14 9.02L17.88 9.02L17.88 19.34L19.14 19.34L19.14 9.02ZM22.72 9.02L21.56 9.02L21.56 19.34L22.82 19.34L22.82 13.84Q22.82 13.02 23.10 12.33Q23.38 11.64 23.89 11.14Q24.40 10.64 25.10 10.37Q25.80 10.10 26.66 10.14L26.66 10.14L26.66 8.88Q25.26 8.82 24.25 9.50Q23.24 10.18 22.76 11.44L22.76 11.44L22.72 11.44L22.72 9.02ZM32.22 9.78L32.22 9.78Q33.12 9.78 33.80 10.16Q34.48 10.54 34.93 11.16Q35.38 11.78 35.61 12.57Q35.84 13.36 35.84 14.18L35.84 14.18Q35.84 15 35.61 15.79Q35.38 16.58 34.93 17.20Q34.48 17.82 33.80 18.20Q33.12 18.58 32.22 18.58L32.22 18.58Q31.32 18.58 30.64 18.20Q29.96 17.82 29.51 17.20Q29.06 16.58 28.83 15.79Q28.60 15 28.60 14.18L28.60 14.18Q28.60 13.36 28.83 12.57Q29.06 11.78 29.51 11.16Q29.96 10.54 30.64 10.16Q31.32 9.78 32.22 9.78ZM32.22 8.72L32.22 8.72Q31.04 8.72 30.13 9.16Q29.22 9.60 28.60 10.34Q27.98 11.08 27.66 12.07Q27.34 13.06 27.34 14.18L27.34 14.18Q27.34 15.30 27.66 16.29Q27.98 17.28 28.60 18.02Q29.22 18.76 30.13 19.19Q31.04 19.62 32.22 19.62L32.22 19.62Q33.40 19.62 34.31 19.19Q35.22 18.76 35.84 18.02Q36.46 17.28 36.78 16.29Q37.10 15.30 37.10 14.18L37.10 14.18Q37.10 13.06 36.78 12.07Q36.46 11.08 35.84 10.34Q35.22 9.60 34.31 9.16Q33.40 8.72 32.22 8.72ZM39.72 17.22L39.72 19.34L41.40 19.34L41.40 17.22L39.72 17.22ZM45.70 9.02L44.54 9.02L44.54 19.34L45.80 19.34L45.80 13.58Q45.80 12.76 45.98 12.07Q46.16 11.38 46.53 10.87Q46.90 10.36 47.49 10.07Q48.08 9.78 48.88 9.78L48.88 9.78Q49.48 9.78 49.90 9.98Q50.32 10.18 50.57 10.53Q50.82 10.88 50.93 11.35Q51.04 11.82 51.04 12.34L51.04 12.34L51.04 19.34L52.30 19.34L52.30 13.50Q52.30 12.78 52.43 12.11Q52.56 11.44 52.88 10.92Q53.20 10.40 53.74 10.09Q54.28 9.78 55.10 9.78L55.10 9.78Q56.46 9.78 57 10.45Q57.54 11.12 57.54 12.40L57.54 12.40L57.54 19.34L58.80 19.34L58.80 12.34Q58.80 8.72 55.38 8.72L55.38 8.72Q54.36 8.72 53.46 9.22Q52.56 9.72 52.10 10.74L52.10 10.74Q51.82 9.72 50.99 9.22Q50.16 8.72 49.14 8.72L49.14 8.72Q47.88 8.72 47.07 9.26Q46.26 9.80 45.76 10.76L45.76 10.76L45.70 10.76L45.70 9.02ZM61.08 12.18L61.08 12.18L62.34 12.18Q62.38 10.92 63.14 10.35Q63.90 9.78 65.10 9.78L65.10 9.78Q65.66 9.78 66.15 9.87Q66.64 9.96 67.01 10.20Q67.38 10.44 67.59 10.85Q67.80 11.26 67.80 11.90L67.80 11.90Q67.80 12.32 67.69 12.58Q67.58 12.84 67.38 12.99Q67.18 13.14 66.88 13.20Q66.58 13.26 66.18 13.30L66.18 13.30Q65.16 13.42 64.17 13.55Q63.18 13.68 62.39 14Q61.60 14.32 61.12 14.93Q60.64 15.54 60.64 16.62L60.64 16.62Q60.64 17.40 60.91 17.97Q61.18 18.54 61.65 18.91Q62.12 19.28 62.75 19.45Q63.38 19.62 64.10 19.62L64.10 19.62Q64.86 19.62 65.41 19.48Q65.96 19.34 66.39 19.08Q66.82 18.82 67.17 18.43Q67.52 18.04 67.86 17.54L67.86 17.54L67.90 17.54Q67.90 17.94 67.95 18.27Q68 18.60 68.16 18.84Q68.32 19.08 68.61 19.21Q68.90 19.34 69.38 19.34L69.38 19.34Q69.64 19.34 69.81 19.32Q69.98 19.30 70.20 19.26L70.20 19.26L70.20 18.20Q70.02 18.28 69.80 18.28L69.80 18.28Q69.06 18.28 69.06 17.52L69.06 17.52L69.06 12.04Q69.06 11 68.72 10.35Q68.38 9.70 67.84 9.34Q67.30 8.98 66.62 8.85Q65.94 8.72 65.26 8.72L65.26 8.72Q64.36 8.72 63.62 8.92Q62.88 9.12 62.33 9.54Q61.78 9.96 61.46 10.62Q61.14 11.28 61.08 12.18ZM67.76 13.70L67.80 13.70L67.80 15.34Q67.80 16.10 67.51 16.70Q67.22 17.30 66.73 17.72Q66.24 18.14 65.58 18.36Q64.92 18.58 64.20 18.58L64.20 18.58Q63.76 18.58 63.34 18.44Q62.92 18.30 62.60 18.03Q62.28 17.76 62.09 17.39Q61.90 17.02 61.90 16.54L61.90 16.54Q61.90 15.78 62.35 15.37Q62.80 14.96 63.50 14.74Q64.20 14.52 65.05 14.41Q65.90 14.30 66.70 14.16L66.70 14.16Q66.96 14.12 67.30 14.02Q67.64 13.92 67.76 13.70L67.76 13.70ZM72.82 9.02L71.56 9.02L71.56 19.34L72.82 19.34L72.82 13.32Q72.84 12.56 73.07 11.91Q73.30 11.26 73.71 10.79Q74.12 10.32 74.71 10.05Q75.30 9.78 76.06 9.78L76.06 9.78Q76.82 9.78 77.33 10.02Q77.84 10.26 78.14 10.68Q78.44 11.10 78.56 11.67Q78.68 12.24 78.68 12.90L78.68 12.90L78.68 19.34L79.94 19.34L79.94 12.70Q79.94 11.78 79.76 11.04Q79.58 10.30 79.14 9.79Q78.70 9.28 77.97 9Q77.24 8.72 76.16 8.72L76.16 8.72Q75.06 8.72 74.14 9.29Q73.22 9.86 72.86 10.80L72.86 10.80L72.82 10.80L72.82 9.02ZM83.56 9.02L82.30 9.02L82.30 19.34L83.56 19.34L83.56 13.32Q83.58 12.56 83.81 11.91Q84.04 11.26 84.45 10.79Q84.86 10.32 85.45 10.05Q86.04 9.78 86.80 9.78L86.80 9.78Q87.56 9.78 88.07 10.02Q88.58 10.26 88.88 10.68Q89.18 11.10 89.30 11.67Q89.42 12.24 89.42 12.90L89.42 12.90L89.42 19.34L90.68 19.34L90.68 12.70Q90.68 11.78 90.50 11.04Q90.32 10.30 89.88 9.79Q89.44 9.28 88.71 9Q87.98 8.72 86.90 8.72L86.90 8.72Q85.80 8.72 84.88 9.29Q83.96 9.86 83.60 10.80L83.60 10.80L83.56 10.80L83.56 9.02ZM94.34 5.06L93.08 5.06L93.08 7.08L94.34 7.08L94.34 5.06ZM94.34 9.02L93.08 9.02L93.08 19.34L94.34 19.34L94.34 9.02ZM98.00 9.02L96.74 9.02L96.74 19.34L98.00 19.34L98.00 13.32Q98.02 12.56 98.25 11.91Q98.48 11.26 98.89 10.79Q99.30 10.32 99.89 10.05Q100.48 9.78 101.24 9.78L101.24 9.78Q102.00 9.78 102.51 10.02Q103.02 10.26 103.32 10.68Q103.62 11.10 103.74 11.67Q103.86 12.24 103.86 12.90L103.86 12.90L103.86 19.34L105.12 19.34L105.12 12.70Q105.12 11.78 104.94 11.04Q104.76 10.30 104.32 9.79Q103.88 9.28 103.15 9Q102.42 8.72 101.34 8.72L101.34 8.72Q100.24 8.72 99.32 9.29Q98.40 9.86 98.04 10.80L98.04 10.80L98.00 10.80L98.00 9.02ZM111.86 9.78L111.86 9.78Q112.76 9.78 113.44 10.16Q114.12 10.54 114.57 11.16Q115.02 11.78 115.25 12.57Q115.48 13.36 115.48 14.18L115.48 14.18Q115.48 15 115.25 15.79Q115.02 16.58 114.57 17.20Q114.12 17.82 113.44 18.20Q112.76 18.58 111.86 18.58L111.86 18.58Q110.96 18.58 110.28 18.20Q109.60 17.82 109.15 17.20Q108.70 16.58 108.47 15.79Q108.24 15 108.24 14.18L108.24 14.18Q108.24 13.36 108.47 12.57Q108.70 11.78 109.15 11.16Q109.60 10.54 110.28 10.16Q110.96 9.78 111.86 9.78ZM111.86 8.72L111.86 8.72Q110.68 8.72 109.77 9.16Q108.86 9.60 108.24 10.34Q107.62 11.08 107.30 12.07Q106.98 13.06 106.98 14.18L106.98 14.18Q106.98 15.30 107.30 16.29Q107.62 17.28 108.24 18.02Q108.86 18.76 109.77 19.19Q110.68 19.62 111.86 19.62L111.86 19.62Q113.04 19.62 113.95 19.19Q114.86 18.76 115.48 18.02Q116.10 17.28 116.42 16.29Q116.74 15.30 116.74 14.18L116.74 14.18Q116.74 13.06 116.42 12.07Q116.10 11.08 115.48 10.34Q114.86 9.60 113.95 9.16Q113.04 8.72 111.86 8.72ZM127.78 14.22L127.78 14.22L129.70 8.46L128.64 8.46L128.14 9.76Q127.80 8.86 127.24 8.47Q126.68 8.08 126.02 8.08L126.02 8.08Q124.96 8.08 124.08 8.59Q123.20 9.10 122.58 9.93Q121.96 10.76 121.62 11.79Q121.28 12.82 121.28 13.86L121.28 13.86Q121.28 14.46 121.46 14.98Q121.64 15.50 121.98 15.90Q122.32 16.30 122.81 16.53Q123.30 16.76 123.92 16.76L123.92 16.76Q124.68 16.76 125.34 16.34Q126.00 15.92 126.46 15.44L126.46 15.44L126.50 15.44Q126.56 16.10 126.94 16.44Q127.32 16.78 127.84 16.78L127.84 16.78Q128.68 16.78 129.51 16.33Q130.34 15.88 131 15.09Q131.66 14.30 132.07 13.24Q132.48 12.18 132.48 10.98L132.48 10.98Q132.48 9.60 131.96 8.46Q131.44 7.32 130.53 6.49Q129.62 5.66 128.38 5.21Q127.14 4.76 125.70 4.76L125.70 4.76Q124.18 4.76 122.84 5.33Q121.50 5.90 120.50 6.89Q119.50 7.88 118.93 9.23Q118.36 10.58 118.36 12.14L118.36 12.14Q118.36 13.72 118.91 15.09Q119.46 16.46 120.45 17.47Q121.44 18.48 122.80 19.05Q124.16 19.62 125.78 19.62L125.78 19.62Q126.72 19.62 127.63 19.38Q128.54 19.14 129.35 18.68Q130.16 18.22 130.83 17.56Q131.50 16.90 131.96 16.08L131.96 16.08L130.94 16.08Q130.50 16.70 129.92 17.19Q129.34 17.68 128.66 18.02Q127.98 18.36 127.25 18.55Q126.52 18.74 125.78 18.74L125.78 18.74Q124.42 18.74 123.25 18.24Q122.08 17.74 121.23 16.87Q120.38 16 119.90 14.82Q119.42 13.64 119.42 12.28L119.42 12.28Q119.42 10.90 119.88 9.69Q120.34 8.48 121.18 7.59Q122.02 6.70 123.18 6.18Q124.34 5.66 125.74 5.66L125.74 5.66Q126.90 5.66 127.93 6.02Q128.96 6.38 129.74 7.05Q130.52 7.72 130.97 8.70Q131.42 9.68 131.42 10.92L131.42 10.92Q131.42 11.76 131.14 12.64Q130.86 13.52 130.40 14.24Q129.94 14.96 129.32 15.42Q128.70 15.88 128.04 15.88L128.04 15.88Q127.80 15.88 127.69 15.74Q127.58 15.60 127.57 15.37Q127.56 15.14 127.62 14.84Q127.68 14.54 127.78 14.22ZM125.94 9.14L125.94 9.14Q126.24 9.14 126.52 9.30Q126.80 9.46 127.02 9.72Q127.24 9.98 127.38 10.31Q127.52 10.64 127.52 11L127.52 11Q127.52 11.66 127.26 12.48Q127.00 13.30 126.55 14.01Q126.10 14.72 125.50 15.21Q124.90 15.70 124.20 15.70L124.20 15.70Q123.48 15.70 123.01 15.18Q122.54 14.66 122.54 13.76L122.54 13.76Q122.54 13.06 122.78 12.25Q123.02 11.44 123.47 10.75Q123.92 10.06 124.55 9.60Q125.18 9.14 125.94 9.14ZM135.86 9.02L134.60 9.02L134.60 19.34L135.86 19.34L135.86 13.32Q135.88 12.56 136.11 11.91Q136.34 11.26 136.75 10.79Q137.16 10.32 137.75 10.05Q138.34 9.78 139.10 9.78L139.10 9.78Q139.86 9.78 140.37 10.02Q140.88 10.26 141.18 10.68Q141.48 11.10 141.60 11.67Q141.72 12.24 141.72 12.90L141.72 12.90L141.72 19.34L142.98 19.34L142.98 12.70Q142.98 11.78 142.80 11.04Q142.62 10.30 142.18 9.79Q141.74 9.28 141.01 9Q140.28 8.72 139.20 8.72L139.20 8.72Q138.10 8.72 137.18 9.29Q136.26 9.86 135.90 10.80L135.90 10.80L135.86 10.80L135.86 9.02ZM145.54 9.02L144.20 9.02L148.32 19.30L147.88 20.46Q147.72 20.82 147.58 21.12Q147.44 21.42 147.24 21.63Q147.04 21.84 146.77 21.96Q146.50 22.08 146.08 22.08L146.08 22.08Q145.86 22.08 145.65 22.05Q145.44 22.02 145.22 21.98L145.22 21.98L145.22 23.04Q145.38 23.10 145.59 23.11Q145.80 23.12 146.18 23.14L146.18 23.14Q146.78 23.14 147.17 23.03Q147.56 22.92 147.85 22.67Q148.14 22.42 148.38 21.99Q148.62 21.56 148.90 20.90L148.90 20.90L153.38 9.02L152.12 9.02L148.94 17.82L145.54 9.02ZM161.82 19.34L162.98 19.34L162.98 9.02L161.72 9.02L161.72 14.44Q161.72 15.22 161.54 15.97Q161.36 16.72 160.98 17.30Q160.60 17.88 160.02 18.23Q159.44 18.58 158.62 18.58L158.62 18.58Q157.12 18.58 156.51 17.86Q155.90 17.14 155.86 15.74L155.86 15.74L155.86 9.02L154.60 9.02L154.60 15.72Q154.60 16.64 154.80 17.36Q155 18.08 155.43 18.58Q155.86 19.08 156.55 19.35Q157.24 19.62 158.22 19.62L158.22 19.62Q159.38 19.62 160.33 19.07Q161.28 18.52 161.78 17.48L161.78 17.48L161.82 17.48L161.82 19.34ZM166.10 17.22L166.10 19.34L167.78 19.34L167.78 17.22L166.10 17.22ZM178.34 13.46L178.34 13.46L171.66 13.46Q171.74 12.76 171.99 12.09Q172.24 11.42 172.66 10.91Q173.08 10.40 173.68 10.09Q174.28 9.78 175.06 9.78L175.06 9.78Q175.82 9.78 176.42 10.09Q177.02 10.40 177.44 10.91Q177.86 11.42 178.09 12.08Q178.32 12.74 178.34 13.46ZM171.66 14.52L171.66 14.52L179.60 14.52Q179.64 13.44 179.40 12.39Q179.16 11.34 178.61 10.53Q178.06 9.72 177.18 9.22Q176.30 8.72 175.06 8.72L175.06 8.72Q173.84 8.72 172.95 9.19Q172.06 9.66 171.50 10.43Q170.94 11.20 170.67 12.18Q170.40 13.16 170.40 14.18L170.40 14.18Q170.40 15.28 170.67 16.27Q170.94 17.26 171.50 18.01Q172.06 18.76 172.95 19.19Q173.84 19.62 175.06 19.62L175.06 19.62Q177.02 19.62 178.09 18.66Q179.16 17.70 179.56 15.94L179.56 15.94L178.30 15.94Q178 17.14 177.22 17.86Q176.44 18.58 175.06 18.58L175.06 18.58Q174.16 18.58 173.52 18.20Q172.88 17.82 172.46 17.24Q172.04 16.66 171.85 15.93Q171.66 15.20 171.66 14.52ZM189.22 19.34L190.38 19.34L190.38 5.06L189.12 5.06L189.12 10.98L189.08 10.98Q188.88 10.42 188.51 10Q188.14 9.58 187.66 9.29Q187.18 9 186.63 8.86Q186.08 8.72 185.50 8.72L185.50 8.72Q184.32 8.72 183.45 9.16Q182.58 9.60 182 10.35Q181.42 11.10 181.14 12.09Q180.86 13.08 180.86 14.18L180.86 14.18Q180.86 15.28 181.14 16.27Q181.42 17.26 182 18.01Q182.58 18.76 183.45 19.19Q184.32 19.62 185.50 19.62L185.50 19.62Q186.06 19.62 186.63 19.46Q187.20 19.30 187.70 19.01Q188.20 18.72 188.59 18.30Q188.98 17.88 189.18 17.38L189.18 17.38L189.22 17.38L189.22 19.34ZM182.12 14.18L182.12 14.18Q182.12 13.38 182.31 12.59Q182.50 11.80 182.91 11.18Q183.32 10.56 183.96 10.17Q184.60 9.78 185.50 9.78L185.50 9.78Q186.50 9.78 187.19 10.17Q187.88 10.56 188.31 11.18Q188.74 11.80 188.93 12.59Q189.12 13.38 189.12 14.18L189.12 14.18Q189.12 14.98 188.93 15.77Q188.74 16.56 188.31 17.18Q187.88 17.80 187.19 18.19Q186.50 18.58 185.50 18.58L185.50 18.58Q184.60 18.58 183.96 18.19Q183.32 17.80 182.91 17.18Q182.50 16.56 182.31 15.77Q182.12 14.98 182.12 14.18ZM199.98 19.34L201.14 19.34L201.14 9.02L199.88 9.02L199.88 14.44Q199.88 15.22 199.70 15.97Q199.52 16.72 199.14 17.30Q198.76 17.88 198.18 18.23Q197.60 18.58 196.78 18.58L196.78 18.58Q195.28 18.58 194.67 17.86Q194.06 17.14 194.02 15.74L194.02 15.74L194.02 9.02L192.76 9.02L192.76 15.72Q192.76 16.64 192.96 17.36Q193.16 18.08 193.59 18.58Q194.02 19.08 194.71 19.35Q195.40 19.62 196.38 19.62L196.38 19.62Q197.54 19.62 198.49 19.07Q199.44 18.52 199.94 17.48L199.94 17.48L199.98 17.48L199.98 19.34Z"/></svg>