<svg xmlns="http://www.w3.org/2000/svg" xmlns:xlink="http://www.w3.org/1999/xlink" width="171.94" height="23.6"><path fill="black" d="M7.38 12.04L7.38 12.04L8.64 12.04Q8.60 11.20 8.30 10.58Q8 9.96 7.49 9.54Q6.98 9.12 6.31 8.92Q5.64 8.72 4.86 8.72L4.86 8.72Q4.18 8.72 3.49 8.88Q2.80 9.04 2.24 9.38Q1.68 9.72 1.33 10.28Q0.98 10.84 0.98 11.62L0.98 11.62Q0.98 12.28 1.20 12.73Q1.42 13.18 1.81 13.49Q2.20 13.80 2.72 14.01Q3.24 14.22 3.86 14.38L3.86 14.38L5.48 14.74Q5.90 14.84 6.31 14.98Q6.72 15.12 7.04 15.33Q7.36 15.54 7.55 15.85Q7.74 16.16 7.74 16.62L7.74 16.62Q7.74 17.16 7.47 17.53Q7.20 17.90 6.78 18.14Q6.36 18.38 5.87 18.48Q5.38 18.58 4.92 18.58L4.92 18.58Q3.66 18.58 2.81 17.93Q1.96 17.28 1.88 16L1.88 16L0.62 16Q0.78 17.90 1.91 18.76Q3.04 19.62 4.86 19.62L4.86 19.62Q5.58 19.62 6.32 19.46Q7.06 19.30 7.65 18.93Q8.24 18.56 8.62 17.97Q9 17.38 9 16.54L9 16.54Q9 15.86 8.74 15.36Q8.48 14.86 8.07 14.52Q7.66 14.18 7.13 13.97Q6.60 13.76 6.06 13.68L6.06 13.68L4.38 13.30Q4.06 13.22 3.68 13.09Q3.30 12.96 2.98 12.76Q2.66 12.56 2.45 12.27Q2.24 11.98 2.24 11.56L2.24 11.56Q2.24 11.06 2.46 10.72Q2.68 10.38 3.04 10.17Q3.40 9.96 3.83 9.87Q4.26 9.78 4.68 9.78L4.68 9.78Q5.22 9.78 5.70 9.91Q6.18 10.04 6.55 10.32Q6.92 10.60 7.14 11.03Q7.36 11.46 7.38 12.04ZM12.06 5.06L10.80 5.06L10.80 19.34L12.06 19.34L12.06 13.32Q12.08 12.56 12.31 11.91Q12.54 11.26 12.95 10.79Q13.36 10.32 13.95 10.05Q14.54 9.78 15.30 9.78L15.30 9.78Q16.06 9.78 16.57 10.02Q17.08 10.26 17.38 10.68Q17.68 11.10 17.80 11.67Q17.92 12.24 17.92 12.90L17.92 12.90L17.92 19.34L19.18 19.34L19.18 12.70Q19.18 11.78 19 11.04Q18.82 10.30 18.38 9.79Q17.94 9.28 17.21 9Q16.48 8.72 15.40 8.72L15.40 8.72Q14.30 8.72 13.38 9.29Q12.46 9.86 12.10 10.80L12.10 10.80L12.06 10.80L12.06 5.06ZM21.44 12.18L21.44 12.18L22.70 12.18Q22.74 10.92 23.50 10.35Q24.26 9.78 25.46 9.78L25.46 9.78Q26.02 9.78 26.51 9.87Q27 9.96 27.37 10.20Q27.74 10.44 27.95 10.85Q28.16 11.26 28.16 11.90L28.16 11.90Q28.16 12.32 28.05 12.58Q27.94 12.84 27.74 12.99Q27.54 13.14 27.24 13.20Q26.94 13.26 26.54 13.30L26.54 13.30Q25.52 13.42 24.53 13.55Q23.54 13.68 22.75 14Q21.96 14.32 21.48 14.93Q21 15.54 21 16.62L21 16.62Q21 17.40 21.27 17.97Q21.54 18.54 22.01 18.91Q22.48 19.28 23.11 19.45Q23.74 19.62 24.46 19.62L24.46 19.62Q25.22 19.62 25.77 19.48Q26.32 19.34 26.75 19.08Q27.18 18.82 27.53 18.43Q27.88 18.04 28.22 17.54L28.22 17.54L28.26 17.54Q28.26 17.94 28.31 18.27Q28.36 18.60 28.52 18.84Q28.68 19.08 28.97 19.21Q29.26 19.34 29.74 19.34L29.74 19.34Q30 19.34 30.17 19.32Q30.34 19.30 30.56 19.26L30.56 19.26L30.56 18.20Q30.38 18.28 30.16 18.28L30.16 18.28Q29.42 18.28 29.42 17.52L29.42 17.52L29.42 12.04Q29.42 11 29.08 10.35Q28.74 9.70 28.20 9.34Q27.66 8.98 26.98 8.85Q26.30 8.72 25.62 8.72L25.62 8.72Q24.72 8.72 23.98 8.92Q23.24 9.12 22.69 9.54Q22.14 9.96 21.82 10.62Q21.50 11.28 21.44 12.18ZM28.12 13.70L28.16 13.70L28.16 15.34Q28.16 16.10 27.87 16.70Q27.58 17.30 27.09 17.72Q26.60 18.14 25.94 18.36Q25.28 18.58 24.56 18.58L24.56 18.58Q24.12 18.58 23.70 18.44Q23.28 18.30 22.96 18.03Q22.64 17.76 22.45 17.39Q22.26 17.02 22.26 16.54L22.26 16.54Q22.26 15.78 22.71 15.37Q23.16 14.96 23.86 14.74Q24.56 14.52 25.41 14.41Q26.26 14.30 27.06 14.16L27.06 14.16Q27.32 14.12 27.66 14.02Q28 13.92 28.12 13.70L28.12 13.70ZM38.12 12.04L38.12 12.04L39.38 12.04Q39.34 11.20 39.04 10.58Q38.74 9.96 38.23 9.54Q37.72 9.12 37.05 8.92Q36.38 8.72 35.60 8.72L35.60 8.72Q34.92 8.72 34.23 8.88Q33.54 9.04 32.98 9.38Q32.42 9.72 32.07 10.28Q31.72 10.84 31.72 11.62L31.72 11.62Q31.72 12.28 31.94 12.73Q32.16 13.18 32.55 13.49Q32.94 13.80 33.46 14.01Q33.98 14.22 34.60 14.38L34.60 14.38L36.22 14.74Q36.64 14.84 37.05 14.98Q37.46 15.12 37.78 15.33Q38.10 15.54 38.29 15.85Q38.48 16.16 38.48 16.62L38.48 16.62Q38.48 17.16 38.21 17.53Q37.94 17.90 37.52 18.14Q37.10 18.38 36.61 18.48Q36.12 18.58 35.66 18.58L35.66 18.58Q34.40 18.58 33.55 17.93Q32.70 17.28 32.62 16L32.62 16L31.36 16Q31.52 17.90 32.65 18.76Q33.78 19.62 35.60 19.62L35.60 19.62Q36.32 19.62 37.06 19.46Q37.80 19.30 38.39 18.93Q38.98 18.56 39.36 17.97Q39.74 17.38 39.74 16.54L39.74 16.54Q39.74 15.86 39.48 15.36Q39.22 14.86 38.81 14.52Q38.40 14.18 37.87 13.97Q37.34 13.76 36.80 13.68L36.80 13.68L35.12 13.30Q34.80 13.22 34.42 13.09Q34.04 12.96 33.72 12.76Q33.40 12.56 33.19 12.27Q32.98 11.98 32.98 11.56L32.98 11.56Q32.98 11.06 33.20 10.72Q33.42 10.38 33.78 10.17Q34.14 9.96 34.57 9.87Q35 9.78 35.42 9.78L35.42 9.78Q35.96 9.78 36.44 9.91Q36.92 10.04 37.29 10.32Q37.66 10.60 37.88 11.03Q38.10 11.46 38.12 12.04ZM42.80 5.06L41.54 5.06L41.54 19.34L42.80 19.34L42.80 13.32Q42.82 12.56 43.05 11.91Q43.28 11.26 43.69 10.79Q44.10 10.32 44.69 10.05Q45.28 9.78 46.04 9.78L46.04 9.78Q46.80 9.78 47.31 10.02Q47.82 10.26 48.12 10.68Q48.42 11.10 48.54 11.67Q48.66 12.24 48.66 12.90L48.66 12.90L48.66 19.34L49.92 19.34L49.92 12.70Q49.92 11.78 49.74 11.04Q49.56 10.30 49.12 9.79Q48.68 9.28 47.95 9Q47.22 8.72 46.14 8.72L46.14 8.72Q45.04 8.72 44.12 9.29Q43.20 9.86 42.84 10.80L42.84 10.80L42.80 10.80L42.80 5.06ZM52.18 12.18L52.18 12.18L53.44 12.18Q53.48 10.92 54.24 10.35Q55 9.78 56.20 9.78L56.20 9.78Q56.76 9.78 57.25 9.87Q57.74 9.96 58.11 10.20Q58.48 10.44 58.69 10.85Q58.90 11.26 58.90 11.90L58.90 11.90Q58.90 12.32 58.79 12.58Q58.68 12.84 58.48 12.99Q58.28 13.14 57.98 13.20Q57.68 13.26 57.28 13.30L57.28 13.30Q56.26 13.42 55.27 13.55Q54.28 13.68 53.49 14Q52.70 14.32 52.22 14.93Q51.74 15.54 51.74 16.62L51.74 16.62Q51.74 17.40 52.01 17.97Q52.28 18.54 52.75 18.91Q53.22 19.28 53.85 19.45Q54.48 19.62 55.20 19.62L55.20 19.62Q55.96 19.62 56.51 19.48Q57.06 19.34 57.49 19.08Q57.92 18.82 58.27 18.43Q58.62 18.04 58.96 17.54L58.96 17.54L59 17.54Q59 17.94 59.05 18.27Q59.10 18.60 59.26 18.84Q59.42 19.08 59.71 19.21Q60 19.34 60.48 19.34L60.48 19.34Q60.74 19.34 60.91 19.32Q61.08 19.30 61.30 19.26L61.30 19.26L61.30 18.20Q61.12 18.28 60.90 18.28L60.90 18.28Q60.16 18.28 60.16 17.52L60.16 17.52L60.16 12.04Q60.16 11 59.82 10.35Q59.48 9.70 58.94 9.34Q58.40 8.98 57.72 8.85Q57.04 8.72 56.36 8.72L56.36 8.72Q55.46 8.72 54.72 8.92Q53.98 9.12 53.43 9.54Q52.88 9.96 52.56 10.62Q52.24 11.28 52.18 12.18ZM58.86 13.70L58.90 13.70L58.90 15.34Q58.90 16.10 58.61 16.70Q58.32 17.30 57.83 17.72Q57.34 18.14 56.68 18.36Q56.02 18.58 55.30 18.58L55.30 18.58Q54.86 18.58 54.44 18.44Q54.02 18.30 53.70 18.03Q53.38 17.76 53.19 17.39Q53 17.02 53 16.54L53 16.54Q53 15.78 53.45 15.37Q53.90 14.96 54.60 14.74Q55.30 14.52 56.15 14.41Q57 14.30 57.80 14.16L57.80 14.16Q58.06 14.12 58.40 14.02Q58.74 13.92 58.86 13.70L58.86 13.70ZM71.84 14.22L71.84 14.22L73.76 8.46L72.70 8.46L72.20 9.76Q71.86 8.86 71.30 8.47Q70.74 8.08 70.08 8.08L70.08 8.08Q69.02 8.08 68.14 8.59Q67.26 9.10 66.64 9.93Q66.02 10.76 65.68 11.79Q65.34 12.82 65.34 13.86L65.34 13.86Q65.34 14.46 65.52 14.98Q65.70 15.50 66.04 15.90Q66.38 16.30 66.87 16.53Q67.36 16.76 67.98 16.76L67.98 16.76Q68.74 16.76 69.40 16.34Q70.06 15.92 70.52 15.44L70.52 15.44L70.56 15.44Q70.62 16.10 71 16.44Q71.38 16.78 71.90 16.78L71.90 16.78Q72.74 16.78 73.57 16.33Q74.40 15.88 75.06 15.09Q75.72 14.30 76.13 13.24Q76.54 12.18 76.54 10.98L76.54 10.98Q76.54 9.60 76.02 8.46Q75.50 7.32 74.59 6.49Q73.68 5.66 72.44 5.21Q71.20 4.76 69.76 4.76L69.76 4.76Q68.24 4.76 66.90 5.33Q65.56 5.90 64.56 6.89Q63.56 7.88 62.99 9.23Q62.42 10.58 62.42 12.14L62.42 12.14Q62.42 13.72 62.97 15.09Q63.52 16.46 64.51 17.47Q65.50 18.48 66.86 19.05Q68.22 19.62 69.84 19.62L69.84 19.62Q70.78 19.62 71.69 19.38Q72.60 19.14 73.41 18.68Q74.22 18.22 74.89 17.56Q75.56 16.90 76.02 16.08L76.02 16.08L75 16.08Q74.56 16.70 73.98 17.19Q73.40 17.68 72.72 18.02Q72.04 18.36 71.31 18.55Q70.58 18.74 69.84 18.74L69.84 18.74Q68.48 18.74 67.31 18.24Q66.14 17.74 65.29 16.87Q64.44 16 63.96 14.82Q63.48 13.64 63.48 12.28L63.48 12.28Q63.48 10.90 63.94 9.69Q64.40 8.48 65.24 7.59Q66.08 6.70 67.24 6.18Q68.40 5.66 69.80 5.66L69.80 5.66Q70.96 5.66 71.99 6.02Q73.02 6.38 73.80 7.05Q74.58 7.72 75.03 8.70Q75.48 9.68 75.48 10.92L75.48 10.92Q75.48 11.76 75.20 12.64Q74.92 13.52 74.46 14.24Q74 14.96 73.38 15.42Q72.76 15.88 72.10 15.88L72.10 15.88Q71.86 15.88 71.75 15.74Q71.64 15.60 71.63 15.37Q71.62 15.14 71.68 14.84Q71.74 14.54 71.84 14.22ZM70 9.14L70 9.14Q70.30 9.14 70.58 9.30Q70.86 9.46 71.08 9.72Q71.30 9.98 71.44 10.31Q71.58 10.64 71.58 11L71.58 11Q71.58 11.66 71.32 12.48Q71.06 13.30 70.61 14.01Q70.16 14.72 69.56 15.21Q68.96 15.70 68.26 15.70L68.26 15.70Q67.54 15.70 67.07 15.18Q66.60 14.66 66.60 13.76L66.60 13.76Q66.60 13.06 66.84 12.25Q67.08 11.44 67.53 10.75Q67.98 10.06 68.61 9.60Q69.24 9.14 70 9.14ZM85.96 12.26L85.96 12.26L87.22 12.26Q87 10.48 85.85 9.60Q84.70 8.72 83.04 8.72L83.04 8.72Q81.86 8.72 80.95 9.16Q80.04 9.60 79.42 10.34Q78.80 11.08 78.48 12.07Q78.16 13.06 78.16 14.18L78.16 14.18Q78.16 15.30 78.48 16.29Q78.80 17.28 79.42 18.02Q80.04 18.76 80.95 19.19Q81.86 19.62 83.04 19.62L83.04 19.62Q84.80 19.62 85.92 18.57Q87.04 17.52 87.30 15.64L87.30 15.64L86.04 15.64Q85.98 16.28 85.72 16.82Q85.46 17.36 85.06 17.75Q84.66 18.14 84.14 18.36Q83.62 18.58 83.04 18.58L83.04 18.58Q82.14 18.58 81.46 18.20Q80.78 17.82 80.33 17.20Q79.88 16.58 79.65 15.79Q79.42 15 79.42 14.18L79.42 14.18Q79.42 13.36 79.65 12.57Q79.88 11.78 80.33 11.16Q80.78 10.54 81.46 10.16Q82.14 9.78 83.04 9.78L83.04 9.78Q84.30 9.78 85 10.44Q85.70 11.10 85.96 12.26ZM95.24 12.04L95.24 12.04L96.50 12.04Q96.46 11.20 96.16 10.58Q95.86 9.96 95.35 9.54Q94.84 9.12 94.17 8.92Q93.50 8.72 92.72 8.72L92.72 8.72Q92.04 8.72 91.35 8.88Q90.66 9.04 90.10 9.38Q89.54 9.72 89.19 10.28Q88.84 10.84 88.84 11.62L88.84 11.62Q88.84 12.28 89.06 12.73Q89.28 13.18 89.67 13.49Q90.06 13.80 90.58 14.01Q91.10 14.22 91.72 14.38L91.72 14.38L93.34 14.74Q93.76 14.84 94.17 14.98Q94.58 15.12 94.90 15.33Q95.22 15.54 95.41 15.85Q95.60 16.16 95.60 16.62L95.60 16.62Q95.60 17.16 95.33 17.53Q95.06 17.90 94.64 18.14Q94.22 18.38 93.73 18.48Q93.24 18.58 92.78 18.58L92.78 18.58Q91.52 18.58 90.67 17.93Q89.82 17.28 89.74 16L89.74 16L88.48 16Q88.64 17.90 89.77 18.76Q90.90 19.62 92.72 19.62L92.72 19.62Q93.44 19.62 94.18 19.46Q94.92 19.30 95.51 18.93Q96.10 18.56 96.48 17.97Q96.86 17.38 96.86 16.54L96.86 16.54Q96.86 15.86 96.60 15.36Q96.34 14.86 95.93 14.52Q95.52 14.18 94.99 13.97Q94.46 13.76 93.92 13.68L93.92 13.68L92.24 13.30Q91.92 13.22 91.54 13.09Q91.16 12.96 90.84 12.76Q90.52 12.56 90.31 12.27Q90.10 11.98 90.10 11.56L90.10 11.56Q90.10 11.06 90.32 10.72Q90.54 10.38 90.90 10.17Q91.26 9.96 91.69 9.87Q92.12 9.78 92.54 9.78L92.54 9.78Q93.08 9.78 93.56 9.91Q94.04 10.04 94.41 10.32Q94.78 10.60 95 11.03Q95.22 11.46 95.24 12.04ZM99.42 17.22L99.42 19.34L101.10 19.34L101.10 17.22L99.42 17.22ZM105.48 9.02L104.22 9.02L104.22 19.34L105.48 19.34L105.48 13.32Q105.50 12.56 105.73 11.91Q105.96 11.26 106.37 10.79Q106.78 10.32 107.37 10.05Q107.96 9.78 108.72 9.78L108.72 9.78Q109.48 9.78 109.99 10.02Q110.50 10.26 110.80 10.68Q111.10 11.10 111.22 11.67Q111.34 12.24 111.34 12.90L111.34 12.90L111.34 19.34L112.60 19.34L112.60 12.70Q112.60 11.78 112.42 11.04Q112.24 10.30 111.80 9.79Q111.36 9.28 110.63 9Q109.90 8.72 108.82 8.72L108.82 8.72Q107.72 8.72 106.80 9.29Q105.88 9.86 105.52 10.80L105.52 10.80L105.48 10.80L105.48 9.02ZM115.16 9.02L113.82 9.02L117.94 19.30L117.50 20.46Q117.34 20.82 117.20 21.12Q117.06 21.42 116.86 21.63Q116.66 21.84 116.39 21.96Q116.12 22.08 115.70 22.08L115.70 22.08Q115.48 22.08 115.27 22.05Q115.06 22.02 114.84 21.98L114.84 21.98L114.84 23.04Q115 23.10 115.21 23.11Q115.42 23.12 115.80 23.14L115.80 23.14Q116.40 23.14 116.79 23.03Q117.18 22.92 117.47 22.67Q117.76 22.42 118 21.99Q118.24 21.56 118.52 20.90L118.52 20.90L123 9.02L121.74 9.02L118.56 17.82L115.16 9.02ZM131.44 19.34L132.60 19.34L132.60 9.02L131.34 9.02L131.34 14.44Q131.34 15.22 131.16 15.97Q130.98 16.72 130.60 17.30Q130.22 17.88 129.64 18.23Q129.06 18.58 128.24 18.58L128.24 18.58Q126.74 18.58 126.13 17.86Q125.52 17.14 125.48 15.74L125.48 15.74L125.48 9.02L124.22 9.02L124.22 15.72Q124.22 16.64 124.42 17.36Q124.62 18.08 125.05 18.58Q125.48 19.08 126.17 19.35Q126.86 19.62 127.84 19.62L127.84 19.62Q129 19.62 129.95 19.07Q130.90 18.52 131.40 17.48L131.40 17.48L131.44 17.48L131.44 19.34ZM135.72 17.22L135.72 19.34L137.40 19.34L137.40 17.22L135.72 17.22ZM147.96 13.46L147.96 13.46L141.28 13.46Q141.36 12.76 141.61 12.09Q141.86 11.42 142.28 10.91Q142.70 10.40 143.30 10.09Q143.90 9.78 144.68 9.78L144.68 9.78Q145.44 9.78 146.04 10.09Q146.64 10.40 147.06 10.91Q147.48 11.42 147.71 12.08Q147.94 12.74 147.96 13.46ZM141.28 14.52L141.28 14.52L149.22 14.52Q149.26 13.44 149.02 12.39Q148.78 11.34 148.23 10.53Q147.68 9.72 146.80 9.22Q145.92 8.72 144.68 8.72L144.68 8.72Q143.46 8.72 142.57 9.19Q141.68 9.66 141.12 10.43Q140.56 11.20 140.29 12.18Q140.02 13.16 140.02 14.18L140.02 14.18Q140.02 15.28 140.29 16.27Q140.56 17.26 141.12 18.01Q141.68 18.76 142.57 19.19Q143.46 19.62 144.68 19.62L144.68 19.62Q146.64 19.62 147.71 18.66Q148.78 17.70 149.18 15.94L149.18 15.94L147.92 15.94Q147.62 17.14 146.84 17.86Q146.06 18.58 144.68 18.58L144.68 18.58Q143.78 18.58 143.14 18.20Q142.50 17.82 142.08 17.24Q141.66 16.66 141.47 15.93Q141.28 15.20 141.28 14.52ZM158.84 19.34L160 19.34L160 5.06L158.74 5.06L158.74 10.98L158.70 10.98Q158.50 10.42 158.13 10Q157.76 9.58 157.28 9.29Q156.80 9 156.25 8.86Q155.70 8.72 155.12 8.72L155.12 8.72Q153.94 8.72 153.07 9.16Q152.20 9.60 151.62 10.35Q151.04 11.10 150.76 12.09Q150.48 13.08 150.48 14.18L150.48 14.18Q150.48 15.28 150.76 16.27Q151.04 17.26 151.62 18.01Q152.20 18.76 153.07 19.19Q153.94 19.62 155.12 19.62L155.12 19.62Q155.68 19.62 156.25 19.46Q156.82 19.30 157.32 19.01Q157.82 18.72 158.21 18.30Q158.60 17.88 158.80 17.38L158.80 17.38L158.84 17.38L158.84 19.34ZM151.74 14.18L151.74 14.18Q151.74 13.38 151.93 12.59Q152.12 11.80 152.53 11.18Q152.94 10.56 153.58 10.17Q154.22 9.78 155.12 9.78L155.12 9.78Q156.12 9.78 156.81 10.17Q157.50 10.56 157.93 11.18Q158.36 11.80 158.55 12.59Q158.74 13.38 158.74 14.18L158.74 14.18Q158.74 14.98 158.55 15.77Q158.36 16.56 157.93 17.18Q157.50 17.80 156.81 18.19Q156.12 18.58 155.12 18.58L155.12 18.58Q154.22 18.58 153.58 18.19Q152.94 17.80 152.53 17.18Q152.12 16.56 151.93 15.77Q151.74 14.98 151.74 14.18ZM169.60 19.34L170.76 19.34L170.76 9.02L169.50 9.02L169.50 14.44Q169.50 15.22 169.32 15.97Q169.14 16.72 168.76 17.30Q168.38 17.88 167.80 18.23Q167.22 18.58 166.40 18.58L166.40 18.58Q164.90 18.58 164.29 17.86Q163.68 17.14 163.64 15.74L163.64 15.74L163.64 9.02L162.38 9.02L162.38 15.72Q162.38 16.64 162.58 17.36Q162.78 18.08 163.21 18.58Q163.64 19.08 164.33 19.35Q165.02 19.62 166 19.62L166 19.62Q167.16 19.62 168.11 19.07Q169.06 18.52 169.56 17.48L169.56 17.48L169.60 17.48L169.60 19.34Z"/></svg>