<svg xmlns="http://www.w3.org/2000/svg" xmlns:xlink="http://www.w3.org/1999/xlink" width="162.32" height="23.6"><path fill="black" d="M8.92 18.28L1.82 18.28L8.64 9.92L8.64 9.02L0.76 9.02L0.76 10.08L7.04 10.08L0.30 18.32L0.30 19.34L8.92 19.34L8.92 18.28ZM10.34 12.18L10.34 12.18L11.60 12.18Q11.64 10.92 12.40 10.35Q13.16 9.78 14.36 9.78L14.36 9.78Q14.92 9.78 15.41 9.87Q15.90 9.96 16.27 10.20Q16.64 10.44 16.85 10.85Q17.06 11.26 17.06 11.90L17.06 11.90Q17.06 12.32 16.95 12.58Q16.84 12.84 16.64 12.99Q16.44 13.14 16.14 13.20Q15.84 13.26 15.44 13.30L15.44 13.30Q14.42 13.42 13.43 13.55Q12.44 13.68 11.65 14Q10.86 14.32 10.38 14.93Q9.90 15.54 9.90 16.62L9.90 16.62Q9.90 17.40 10.17 17.97Q10.44 18.54 10.91 18.91Q11.38 19.28 12.01 19.45Q12.64 19.62 13.36 19.62L13.36 19.62Q14.12 19.62 14.67 19.48Q15.22 19.34 15.65 19.08Q16.08 18.82 16.43 18.43Q16.78 18.04 17.12 17.54L17.12 17.54L17.16 17.54Q17.16 17.94 17.21 18.27Q17.26 18.60 17.42 18.84Q17.58 19.08 17.87 19.21Q18.16 19.34 18.64 19.34L18.64 19.34Q18.90 19.34 19.07 19.32Q19.24 19.30 19.46 19.26L19.46 19.26L19.46 18.20Q19.28 18.28 19.06 18.28L19.06 18.28Q18.32 18.28 18.32 17.52L18.32 17.52L18.32 12.04Q18.32 11 17.98 10.35Q17.64 9.70 17.10 9.34Q16.56 8.98 15.88 8.85Q15.20 8.72 14.52 8.72L14.52 8.72Q13.62 8.72 12.88 8.92Q12.14 9.12 11.59 9.54Q11.04 9.96 10.72 10.62Q10.40 11.28 10.34 12.18ZM17.02 13.70L17.06 13.70L17.06 15.34Q17.06 16.10 16.77 16.70Q16.48 17.30 15.99 17.72Q15.50 18.14 14.84 18.36Q14.18 18.58 13.46 18.58L13.46 18.58Q13.02 18.58 12.60 18.44Q12.18 18.30 11.86 18.03Q11.54 17.76 11.35 17.39Q11.16 17.02 11.16 16.54L11.16 16.54Q11.16 15.78 11.61 15.37Q12.06 14.96 12.76 14.74Q13.46 14.52 14.31 14.41Q15.16 14.30 15.96 14.16L15.96 14.16Q16.22 14.12 16.56 14.02Q16.90 13.92 17.02 13.70L17.02 13.70ZM22.12 5.06L20.86 5.06L20.86 7.08L22.12 7.08L22.12 5.06ZM22.12 9.02L20.86 9.02L20.86 19.34L22.12 19.34L22.12 9.02ZM25.78 9.02L24.52 9.02L24.52 19.34L25.78 19.34L25.78 13.32Q25.80 12.56 26.03 11.91Q26.26 11.26 26.67 10.79Q27.08 10.32 27.67 10.05Q28.26 9.78 29.02 9.78L29.02 9.78Q29.78 9.78 30.29 10.02Q30.80 10.26 31.10 10.68Q31.40 11.10 31.52 11.67Q31.64 12.24 31.64 12.90L31.64 12.90L31.64 19.34L32.90 19.34L32.90 12.70Q32.90 11.78 32.72 11.04Q32.54 10.30 32.10 9.79Q31.66 9.28 30.93 9Q30.20 8.72 29.12 8.72L29.12 8.72Q28.02 8.72 27.10 9.29Q26.18 9.86 25.82 10.80L25.82 10.80L25.78 10.80L25.78 9.02ZM36.02 17.22L36.02 19.34L37.70 19.34L37.70 17.22L36.02 17.22ZM44.94 9.02L42.84 9.02L42.84 5.92L41.58 5.92L41.58 9.02L39.78 9.02L39.78 10.08L41.58 10.08L41.58 17.14Q41.56 18.46 42.06 18.95Q42.56 19.44 43.82 19.44L43.82 19.44Q44.10 19.44 44.38 19.42Q44.66 19.40 44.94 19.40L44.94 19.40L44.94 18.34Q44.40 18.40 43.86 18.40L43.86 18.40Q43.18 18.36 43.01 18.01Q42.84 17.66 42.84 17.04L42.84 17.04L42.84 10.08L44.94 10.08L44.94 9.02ZM46.64 12.18L46.64 12.18L47.90 12.18Q47.94 10.92 48.70 10.35Q49.46 9.78 50.66 9.78L50.66 9.78Q51.22 9.78 51.71 9.87Q52.20 9.96 52.57 10.20Q52.94 10.44 53.15 10.85Q53.36 11.26 53.36 11.90L53.36 11.90Q53.36 12.32 53.25 12.58Q53.14 12.84 52.94 12.99Q52.74 13.14 52.44 13.20Q52.14 13.26 51.74 13.30L51.74 13.30Q50.72 13.42 49.73 13.55Q48.74 13.68 47.95 14Q47.16 14.32 46.68 14.93Q46.20 15.54 46.20 16.62L46.20 16.62Q46.20 17.40 46.47 17.97Q46.74 18.54 47.21 18.91Q47.68 19.28 48.31 19.45Q48.94 19.62 49.66 19.62L49.66 19.62Q50.42 19.62 50.97 19.48Q51.52 19.34 51.95 19.08Q52.38 18.82 52.73 18.43Q53.08 18.04 53.42 17.54L53.42 17.54L53.46 17.54Q53.46 17.94 53.51 18.27Q53.56 18.60 53.72 18.84Q53.88 19.08 54.17 19.21Q54.46 19.34 54.94 19.34L54.94 19.34Q55.20 19.34 55.37 19.32Q55.54 19.30 55.76 19.26L55.76 19.26L55.76 18.20Q55.58 18.28 55.36 18.28L55.36 18.28Q54.62 18.28 54.62 17.52L54.62 17.52L54.62 12.04Q54.62 11 54.28 10.35Q53.94 9.70 53.40 9.34Q52.86 8.98 52.18 8.85Q51.50 8.72 50.82 8.72L50.82 8.72Q49.92 8.72 49.18 8.92Q48.44 9.12 47.89 9.54Q47.34 9.96 47.02 10.62Q46.70 11.28 46.64 12.18ZM53.32 13.70L53.36 13.70L53.36 15.34Q53.36 16.10 53.07 16.70Q52.78 17.30 52.29 17.72Q51.80 18.14 51.14 18.36Q50.48 18.58 49.76 18.58L49.76 18.58Q49.32 18.58 48.90 18.44Q48.48 18.30 48.16 18.03Q47.84 17.76 47.65 17.39Q47.46 17.02 47.46 16.54L47.46 16.54Q47.46 15.78 47.91 15.37Q48.36 14.96 49.06 14.74Q49.76 14.52 50.61 14.41Q51.46 14.30 52.26 14.16L52.26 14.16Q52.52 14.12 52.86 14.02Q53.20 13.92 53.32 13.70L53.32 13.70ZM58.30 9.02L57.14 9.02L57.14 19.34L58.40 19.34L58.40 13.84Q58.40 13.02 58.68 12.33Q58.96 11.64 59.47 11.14Q59.98 10.64 60.68 10.37Q61.38 10.10 62.24 10.14L62.24 10.14L62.24 8.88Q60.84 8.82 59.83 9.50Q58.82 10.18 58.34 11.44L58.34 11.44L58.30 11.44L58.30 9.02ZM64.72 5.06L63.46 5.06L63.46 7.08L64.72 7.08L64.72 5.06ZM64.72 9.02L63.46 9.02L63.46 19.34L64.72 19.34L64.72 9.02ZM74.96 23.14L76.22 23.14L76.22 9.02L75.06 9.02L75.06 10.98L75.02 10.98Q74.82 10.46 74.43 10.05Q74.04 9.64 73.54 9.34Q73.04 9.04 72.47 8.88Q71.90 8.72 71.34 8.72L71.34 8.72Q70.16 8.72 69.29 9.16Q68.42 9.60 67.84 10.35Q67.26 11.10 66.98 12.09Q66.70 13.08 66.70 14.18L66.70 14.18Q66.70 15.28 66.98 16.27Q67.26 17.26 67.84 18.01Q68.42 18.76 69.29 19.19Q70.16 19.62 71.34 19.62L71.34 19.62Q71.92 19.62 72.47 19.48Q73.02 19.34 73.50 19.06Q73.98 18.78 74.35 18.36Q74.72 17.94 74.92 17.38L74.92 17.38L74.96 17.38L74.96 23.14ZM67.96 14.18L67.96 14.18Q67.96 13.38 68.15 12.59Q68.34 11.80 68.75 11.18Q69.16 10.56 69.80 10.17Q70.44 9.78 71.34 9.78L71.34 9.78Q72.34 9.78 73.03 10.17Q73.72 10.56 74.15 11.18Q74.58 11.80 74.77 12.59Q74.96 13.38 74.96 14.18L74.96 14.18Q74.96 14.98 74.77 15.77Q74.58 16.56 74.15 17.18Q73.72 17.80 73.03 18.19Q72.34 18.58 71.34 18.58L71.34 18.58Q70.44 18.58 69.80 18.19Q69.16 17.80 68.75 17.18Q68.34 16.56 68.15 15.77Q67.96 14.98 67.96 14.18ZM87.78 14.22L87.78 14.22L89.70 8.46L88.64 8.46L88.14 9.76Q87.80 8.86 87.24 8.47Q86.68 8.08 86.02 8.08L86.02 8.08Q84.96 8.08 84.08 8.59Q83.20 9.10 82.58 9.93Q81.96 10.76 81.62 11.79Q81.28 12.82 81.28 13.86L81.28 13.86Q81.28 14.46 81.46 14.98Q81.64 15.50 81.98 15.90Q82.32 16.30 82.81 16.53Q83.30 16.76 83.92 16.76L83.92 16.76Q84.68 16.76 85.34 16.34Q86 15.92 86.46 15.44L86.46 15.44L86.50 15.44Q86.56 16.10 86.94 16.44Q87.32 16.78 87.84 16.78L87.84 16.78Q88.68 16.78 89.51 16.33Q90.34 15.88 91 15.09Q91.66 14.30 92.07 13.24Q92.48 12.18 92.48 10.98L92.48 10.98Q92.48 9.60 91.96 8.46Q91.44 7.32 90.53 6.49Q89.62 5.66 88.38 5.21Q87.14 4.76 85.70 4.76L85.70 4.76Q84.18 4.76 82.84 5.33Q81.50 5.90 80.50 6.89Q79.50 7.88 78.93 9.23Q78.36 10.58 78.36 12.14L78.36 12.14Q78.36 13.72 78.91 15.09Q79.46 16.46 80.45 17.47Q81.44 18.48 82.80 19.05Q84.16 19.62 85.78 19.62L85.78 19.62Q86.72 19.62 87.63 19.38Q88.54 19.14 89.35 18.68Q90.16 18.22 90.83 17.56Q91.50 16.90 91.96 16.08L91.96 16.08L90.94 16.08Q90.50 16.70 89.92 17.19Q89.34 17.68 88.66 18.02Q87.98 18.36 87.25 18.55Q86.52 18.74 85.78 18.74L85.78 18.74Q84.42 18.74 83.25 18.24Q82.08 17.74 81.23 16.87Q80.38 16 79.90 14.82Q79.42 13.64 79.42 12.28L79.42 12.28Q79.42 10.90 79.88 9.69Q80.34 8.48 81.18 7.59Q82.02 6.70 83.18 6.18Q84.34 5.66 85.74 5.66L85.74 5.66Q86.90 5.66 87.93 6.02Q88.96 6.38 89.74 7.05Q90.52 7.72 90.97 8.70Q91.42 9.68 91.42 10.92L91.42 10.92Q91.42 11.76 91.14 12.64Q90.86 13.52 90.40 14.24Q89.94 14.96 89.32 15.42Q88.70 15.88 88.04 15.88L88.04 15.88Q87.80 15.88 87.69 15.74Q87.58 15.60 87.57 15.37Q87.56 15.14 87.62 14.84Q87.68 14.54 87.78 14.22ZM85.94 9.14L85.94 9.14Q86.24 9.14 86.52 9.30Q86.80 9.46 87.02 9.72Q87.24 9.98 87.38 10.31Q87.52 10.64 87.52 11L87.52 11Q87.52 11.66 87.26 12.48Q87 13.30 86.55 14.01Q86.10 14.72 85.50 15.21Q84.90 15.70 84.20 15.70L84.20 15.70Q83.48 15.70 83.01 15.18Q82.54 14.66 82.54 13.76L82.54 13.76Q82.54 13.06 82.78 12.25Q83.02 11.44 83.47 10.75Q83.92 10.06 84.55 9.60Q85.18 9.14 85.94 9.14ZM95.86 9.02L94.60 9.02L94.60 19.34L95.86 19.34L95.86 13.32Q95.88 12.56 96.11 11.91Q96.34 11.26 96.75 10.79Q97.16 10.32 97.75 10.05Q98.34 9.78 99.10 9.78L99.10 9.78Q99.86 9.78 100.37 10.02Q100.88 10.26 101.18 10.68Q101.48 11.10 101.60 11.67Q101.72 12.24 101.72 12.90L101.72 12.90L101.72 19.34L102.98 19.34L102.98 12.70Q102.98 11.78 102.80 11.04Q102.62 10.30 102.18 9.79Q101.74 9.28 101.01 9Q100.28 8.72 99.20 8.72L99.20 8.72Q98.10 8.72 97.18 9.29Q96.26 9.86 95.90 10.80L95.90 10.80L95.86 10.80L95.86 9.02ZM105.54 9.02L104.20 9.02L108.32 19.30L107.88 20.46Q107.72 20.82 107.58 21.12Q107.44 21.42 107.24 21.63Q107.04 21.84 106.77 21.96Q106.50 22.08 106.08 22.08L106.08 22.08Q105.86 22.08 105.65 22.05Q105.44 22.02 105.22 21.98L105.22 21.98L105.22 23.04Q105.38 23.10 105.59 23.11Q105.80 23.12 106.18 23.14L106.18 23.14Q106.78 23.14 107.17 23.03Q107.56 22.92 107.85 22.67Q108.14 22.42 108.38 21.99Q108.62 21.56 108.90 20.90L108.90 20.90L113.38 9.02L112.12 9.02L108.94 17.82L105.54 9.02ZM121.82 19.34L122.98 19.34L122.98 9.02L121.72 9.02L121.72 14.44Q121.72 15.22 121.54 15.97Q121.36 16.72 120.98 17.30Q120.60 17.88 120.02 18.23Q119.44 18.58 118.62 18.58L118.62 18.58Q117.12 18.58 116.51 17.86Q115.90 17.14 115.86 15.74L115.86 15.74L115.86 9.02L114.60 9.02L114.60 15.72Q114.60 16.64 114.80 17.36Q115 18.08 115.43 18.58Q115.86 19.08 116.55 19.35Q117.24 19.62 118.22 19.62L118.22 19.62Q119.38 19.62 120.33 19.07Q121.28 18.52 121.78 17.48L121.78 17.48L121.82 17.48L121.82 19.34ZM126.10 17.22L126.10 19.34L127.78 19.34L127.78 17.22L126.10 17.22ZM138.34 13.46L138.34 13.46L131.66 13.46Q131.74 12.76 131.99 12.09Q132.24 11.42 132.66 10.91Q133.08 10.40 133.68 10.09Q134.28 9.78 135.06 9.78L135.06 9.78Q135.82 9.78 136.42 10.09Q137.02 10.40 137.44 10.91Q137.86 11.42 138.09 12.08Q138.32 12.74 138.34 13.46ZM131.66 14.52L131.66 14.52L139.60 14.52Q139.64 13.44 139.40 12.39Q139.16 11.34 138.61 10.53Q138.06 9.72 137.18 9.22Q136.30 8.72 135.06 8.72L135.06 8.72Q133.84 8.72 132.95 9.19Q132.06 9.66 131.50 10.43Q130.94 11.20 130.67 12.18Q130.40 13.16 130.40 14.18L130.40 14.18Q130.40 15.28 130.67 16.27Q130.94 17.26 131.50 18.01Q132.06 18.76 132.95 19.19Q133.84 19.62 135.06 19.62L135.06 19.62Q137.02 19.62 138.09 18.66Q139.16 17.70 139.56 15.94L139.56 15.94L138.30 15.94Q138 17.14 137.22 17.86Q136.44 18.58 135.06 18.58L135.06 18.58Q134.16 18.58 133.52 18.20Q132.88 17.82 132.46 17.24Q132.04 16.66 131.85 15.93Q131.66 15.20 131.66 14.52ZM149.22 19.34L150.38 19.34L150.38 5.06L149.12 5.06L149.12 10.98L149.08 10.98Q148.88 10.42 148.51 10Q148.14 9.58 147.66 9.29Q147.18 9 146.63 8.86Q146.08 8.72 145.50 8.72L145.50 8.72Q144.32 8.72 143.45 9.16Q142.58 9.60 142 10.35Q141.42 11.10 141.14 12.09Q140.86 13.08 140.86 14.18L140.86 14.18Q140.86 15.28 141.14 16.27Q141.42 17.26 142 18.01Q142.58 18.76 143.45 19.19Q144.32 19.62 145.50 19.62L145.50 19.62Q146.06 19.62 146.63 19.46Q147.20 19.30 147.70 19.01Q148.20 18.72 148.59 18.30Q148.98 17.88 149.18 17.38L149.18 17.38L149.22 17.38L149.22 19.34ZM142.12 14.18L142.12 14.18Q142.12 13.38 142.31 12.59Q142.50 11.80 142.91 11.18Q143.32 10.56 143.96 10.17Q144.60 9.78 145.50 9.78L145.50 9.78Q146.50 9.78 147.19 10.17Q147.88 10.56 148.31 11.18Q148.74 11.80 148.93 12.59Q149.12 13.38 149.12 14.18L149.12 14.18Q149.12 14.98 148.93 15.77Q148.74 16.56 148.31 17.18Q147.88 17.80 147.19 18.19Q146.50 18.58 145.50 18.58L145.50 18.58Q144.60 18.58 143.96 18.19Q143.32 17.80 142.91 17.18Q142.50 16.56 142.31 15.77Q142.12 14.98 142.12 14.18ZM159.98 19.34L161.14 19.34L161.14 9.02L159.88 9.02L159.88 14.44Q159.88 15.22 159.70 15.97Q159.52 16.72 159.14 17.30Q158.76 17.88 158.18 18.23Q157.60 18.58 156.78 18.58L156.78 18.58Q155.28 18.58 154.67 17.86Q154.06 17.14 154.02 15.74L154.02 15.74L154.02 9.02L152.76 9.02L152.76 15.72Q152.76 16.64 152.96 17.36Q153.16 18.08 153.59 18.58Q154.02 19.08 154.71 19.35Q155.40 19.62 156.38 19.62L156.38 19.62Q157.54 19.62 158.49 19.07Q159.44 18.52 159.94 17.48L159.94 17.48L159.98 17.48L159.98 19.34Z"/></svg>